<svg width="100" height="25" viewBox="0 0 100 25" fill="none" xmlns="http://www.w3.org/2000/svg">
<path d="M12 1C5.373 1 0 6.373 0 13C0 19.627 5.373 25 12 25C18.627 25 24 19.627 24 13C24 6.373 18.627 1 12 1ZM12 3C15.691 3 18.915 5.016 20.647 8H3.353C5.085 5.016 8.309 3 12 3V3ZM12 23C6.486 23 2 18.514 2 13C2 11.955 2.163 10.948 2.461 10H4.32C4.926 11.518 6.249 13 8.306 13C10.783 13 10.459 10.69 12 10.69C13.541 10.69 13.218 13 15.695 13C17.75 13 19.074 11.518 19.679 10H21.539C21.837 10.948 22 11.955 22 13C22 18.514 17.514 23 12 23ZM17.508 14.941L18 15.434C16.873 17.154 14.801 19 12.001 19C9.2 19 7.127 17.154 6 15.434L6.492 14.941C8.005 16.136 9.666 16.872 12.001 16.872C14.334 16.872 15.995 16.136 17.508 14.941V14.941Z" fill="black"/>
<path d="M33.616 11V4.064L30.532 9.452H30.004L26.908 4.064V11H26.068V2.48H26.932L30.256 8.312L33.604 2.48H34.456V11H33.616ZM39.0297 11.12C38.4297 11.12 37.8937 10.972 37.4217 10.676C36.9497 10.38 36.5777 9.984 36.3057 9.488C36.0337 8.992 35.8977 8.448 35.8977 7.856C35.8977 7.272 36.0297 6.736 36.2937 6.248C36.5657 5.76 36.9377 5.372 37.4097 5.084C37.8817 4.788 38.4177 4.64 39.0177 4.64C39.6337 4.64 40.1737 4.788 40.6377 5.084C41.1017 5.38 41.4617 5.772 41.7177 6.26C41.9817 6.74 42.1137 7.268 42.1137 7.844C42.1137 7.972 42.1097 8.08 42.1017 8.168H36.7497C36.7897 8.616 36.9177 9.016 37.1337 9.368C37.3497 9.712 37.6257 9.988 37.9617 10.196C38.2977 10.396 38.6657 10.496 39.0657 10.496C39.4737 10.496 39.8577 10.392 40.2177 10.184C40.5777 9.976 40.8337 9.704 40.9857 9.368L41.6937 9.56C41.5657 9.864 41.3657 10.136 41.0937 10.376C40.8297 10.608 40.5217 10.792 40.1697 10.928C39.8177 11.056 39.4377 11.12 39.0297 11.12ZM36.7257 7.58H41.3457C41.3137 7.132 41.1897 6.736 40.9737 6.392C40.7577 6.04 40.4817 5.768 40.1457 5.576C39.8097 5.376 39.4377 5.276 39.0297 5.276C38.6217 5.276 38.2497 5.376 37.9137 5.576C37.5777 5.768 37.3017 6.04 37.0857 6.392C36.8777 6.736 36.7577 7.132 36.7257 7.58ZM52.6727 11H51.8567V7.508C51.8567 6.788 51.7407 6.256 51.5087 5.912C51.2767 5.56 50.9327 5.384 50.4767 5.384C49.9967 5.384 49.5727 5.552 49.2047 5.888C48.8367 6.224 48.5767 6.656 48.4247 7.184V11H47.6087V7.508C47.6087 6.772 47.4927 6.236 47.2607 5.9C47.0367 5.556 46.6967 5.384 46.2407 5.384C45.7687 5.384 45.3447 5.548 44.9687 5.876C44.6007 6.204 44.3407 6.636 44.1887 7.172V11H43.3727V4.748H44.1167V6.164C44.3727 5.684 44.7087 5.312 45.1247 5.048C45.5407 4.776 46.0007 4.64 46.5047 4.64C47.0247 4.64 47.4447 4.792 47.7647 5.096C48.0847 5.392 48.2807 5.776 48.3527 6.248C48.9287 5.176 49.7327 4.64 50.7647 4.64C51.4687 4.64 51.9607 4.888 52.2407 5.384C52.5287 5.872 52.6727 6.524 52.6727 7.34V11ZM57.1 11.12C56.5 11.12 55.964 10.972 55.492 10.676C55.02 10.38 54.648 9.984 54.376 9.488C54.104 8.992 53.968 8.448 53.968 7.856C53.968 7.272 54.1 6.736 54.364 6.248C54.636 5.76 55.008 5.372 55.48 5.084C55.952 4.788 56.488 4.64 57.088 4.64C57.704 4.64 58.244 4.788 58.708 5.084C59.172 5.38 59.532 5.772 59.788 6.26C60.052 6.74 60.184 7.268 60.184 7.844C60.184 7.972 60.18 8.08 60.172 8.168H54.82C54.86 8.616 54.988 9.016 55.204 9.368C55.42 9.712 55.696 9.988 56.032 10.196C56.368 10.396 56.736 10.496 57.136 10.496C57.544 10.496 57.928 10.392 58.288 10.184C58.648 9.976 58.904 9.704 59.056 9.368L59.764 9.56C59.636 9.864 59.436 10.136 59.164 10.376C58.9 10.608 58.592 10.792 58.24 10.928C57.888 11.056 57.508 11.12 57.1 11.12ZM54.796 7.58H59.416C59.384 7.132 59.26 6.736 59.044 6.392C58.828 6.04 58.552 5.768 58.216 5.576C57.88 5.376 57.508 5.276 57.1 5.276C56.692 5.276 56.32 5.376 55.984 5.576C55.648 5.768 55.372 6.04 55.156 6.392C54.948 6.736 54.828 7.132 54.796 7.58Z" fill="black"/>
<path d="M38.616 22V15.064L35.532 20.452H35.004L31.908 15.064V22H31.068V13.48H31.932L35.256 19.312L38.604 13.48H39.456V22H38.616ZM40.8608 20.2C40.8608 19.816 40.9728 19.484 41.1968 19.204C41.4208 18.916 41.7288 18.692 42.1208 18.532C42.5208 18.372 42.9808 18.292 43.5008 18.292C43.8048 18.292 44.1208 18.32 44.4488 18.376C44.7768 18.424 45.0688 18.492 45.3248 18.58V18.052C45.3248 17.524 45.1688 17.104 44.8568 16.792C44.5448 16.48 44.1128 16.324 43.5608 16.324C43.2328 16.324 42.9048 16.388 42.5768 16.516C42.2488 16.636 41.9088 16.816 41.5568 17.056L41.2448 16.48C41.6528 16.2 42.0528 15.992 42.4448 15.856C42.8368 15.712 43.2368 15.64 43.6448 15.64C44.4128 15.64 45.0208 15.86 45.4688 16.3C45.9168 16.74 46.1408 17.348 46.1408 18.124V21.016C46.1408 21.232 46.2408 21.344 46.4408 21.352V22C46.2648 22.024 46.1408 22.032 46.0688 22.024C45.8688 22.016 45.7168 21.952 45.6128 21.832C45.5088 21.712 45.4528 21.584 45.4448 21.448L45.4328 20.992C45.1528 21.352 44.7888 21.632 44.3408 21.832C43.8928 22.024 43.4368 22.12 42.9728 22.12C42.5648 22.12 42.2008 22.036 41.8808 21.868C41.5608 21.692 41.3088 21.46 41.1248 21.172C40.9488 20.876 40.8608 20.552 40.8608 20.2ZM45.0488 20.68C45.2328 20.464 45.3248 20.264 45.3248 20.08V19.168C44.7728 18.952 44.1968 18.844 43.5968 18.844C43.0128 18.844 42.5408 18.96 42.1808 19.192C41.8208 19.424 41.6408 19.74 41.6408 20.14C41.6408 20.484 41.7728 20.796 42.0368 21.076C42.3088 21.356 42.6848 21.496 43.1648 21.496C43.5568 21.496 43.9208 21.42 44.2568 21.268C44.6008 21.116 44.8648 20.92 45.0488 20.68ZM51.0239 16.468C50.4799 16.484 49.9999 16.636 49.5839 16.924C49.1759 17.212 48.8879 17.608 48.7199 18.112V22H47.9039V15.748H48.6719V17.248C48.8879 16.808 49.1719 16.452 49.5239 16.18C49.8839 15.908 50.2639 15.756 50.6639 15.724C50.7439 15.716 50.8119 15.712 50.8679 15.712C50.9239 15.712 50.9759 15.716 51.0239 15.724V16.468ZM56.5749 22L54.2589 18.796L52.9269 20.044V22H52.1109V13.24H52.9269V19.168L56.4669 15.76H57.3669L54.8109 18.316L57.4629 22H56.5749ZM60.8461 22.12C60.2461 22.12 59.7101 21.972 59.2381 21.676C58.7661 21.38 58.3941 20.984 58.1221 20.488C57.8501 19.992 57.7141 19.448 57.7141 18.856C57.7141 18.272 57.8461 17.736 58.1101 17.248C58.3821 16.76 58.7541 16.372 59.2261 16.084C59.6981 15.788 60.2341 15.64 60.8341 15.64C61.4501 15.64 61.9901 15.788 62.4541 16.084C62.9181 16.38 63.2781 16.772 63.5341 17.26C63.7981 17.74 63.9301 18.268 63.9301 18.844C63.9301 18.972 63.9261 19.08 63.9181 19.168H58.5661C58.6061 19.616 58.7341 20.016 58.9501 20.368C59.1661 20.712 59.4421 20.988 59.7781 21.196C60.1141 21.396 60.4821 21.496 60.8821 21.496C61.2901 21.496 61.6741 21.392 62.0341 21.184C62.3941 20.976 62.6501 20.704 62.8021 20.368L63.5101 20.56C63.3821 20.864 63.1821 21.136 62.9101 21.376C62.6461 21.608 62.3381 21.792 61.9861 21.928C61.6341 22.056 61.2541 22.12 60.8461 22.12ZM58.5421 18.58H63.1621C63.1301 18.132 63.0061 17.736 62.7901 17.392C62.5741 17.04 62.2981 16.768 61.9621 16.576C61.6261 16.376 61.2541 16.276 60.8461 16.276C60.4381 16.276 60.0661 16.376 59.7301 16.576C59.3941 16.768 59.1181 17.04 58.9021 17.392C58.6941 17.736 58.5741 18.132 58.5421 18.58ZM68.1305 21.7C68.0345 21.74 67.8585 21.812 67.6025 21.916C67.3465 22.02 67.0505 22.072 66.7145 22.072C66.3625 22.072 66.0545 21.972 65.7905 21.772C65.5265 21.572 65.3945 21.272 65.3945 20.872V16.396H64.5305V15.748H65.3945V13.636H66.2105V15.748H67.6505V16.396H66.2105V20.644C66.2265 20.876 66.3065 21.048 66.4505 21.16C66.6025 21.264 66.7745 21.316 66.9665 21.316C67.1905 21.316 67.3905 21.28 67.5665 21.208C67.7505 21.128 67.8665 21.072 67.9145 21.04L68.1305 21.7ZM72.342 22.12C71.822 22.12 71.354 21.984 70.938 21.712C70.53 21.44 70.206 21.104 69.966 20.704V24.556H69.15V15.748H69.882V16.96C70.13 16.568 70.458 16.252 70.866 16.012C71.282 15.764 71.73 15.64 72.21 15.64C72.642 15.64 73.038 15.732 73.398 15.916C73.758 16.092 74.07 16.332 74.334 16.636C74.606 16.94 74.814 17.288 74.958 17.68C75.102 18.064 75.174 18.464 75.174 18.88C75.174 19.464 75.054 20.004 74.814 20.5C74.582 20.988 74.25 21.38 73.818 21.676C73.394 21.972 72.902 22.12 72.342 22.12ZM72.114 21.4C72.57 21.4 72.962 21.28 73.29 21.04C73.626 20.792 73.886 20.476 74.07 20.092C74.254 19.708 74.346 19.304 74.346 18.88C74.346 18.432 74.242 18.016 74.034 17.632C73.826 17.248 73.546 16.94 73.194 16.708C72.85 16.476 72.458 16.36 72.018 16.36C71.746 16.36 71.458 16.432 71.154 16.576C70.858 16.712 70.594 16.9 70.362 17.14C70.138 17.372 70.006 17.628 69.966 17.908V19.828C70.15 20.268 70.438 20.64 70.83 20.944C71.222 21.248 71.65 21.4 72.114 21.4ZM76.5923 13.24H77.4083V20.584C77.4083 20.896 77.4603 21.1 77.5643 21.196C77.6763 21.292 77.8163 21.34 77.9843 21.34C78.1283 21.34 78.2723 21.324 78.4163 21.292C78.5683 21.26 78.6923 21.228 78.7883 21.196L78.9323 21.856C78.7803 21.92 78.5923 21.972 78.3683 22.012C78.1523 22.052 77.9643 22.072 77.8043 22.072C77.4363 22.072 77.1403 21.964 76.9163 21.748C76.7003 21.532 76.5923 21.236 76.5923 20.86V13.24ZM79.3218 20.2C79.3218 19.816 79.4338 19.484 79.6578 19.204C79.8818 18.916 80.1898 18.692 80.5818 18.532C80.9818 18.372 81.4418 18.292 81.9618 18.292C82.2658 18.292 82.5818 18.32 82.9098 18.376C83.2378 18.424 83.5298 18.492 83.7858 18.58V18.052C83.7858 17.524 83.6298 17.104 83.3178 16.792C83.0058 16.48 82.5738 16.324 82.0218 16.324C81.6938 16.324 81.3658 16.388 81.0378 16.516C80.7098 16.636 80.3698 16.816 80.0178 17.056L79.7058 16.48C80.1138 16.2 80.5138 15.992 80.9058 15.856C81.2978 15.712 81.6978 15.64 82.1058 15.64C82.8738 15.64 83.4818 15.86 83.9298 16.3C84.3778 16.74 84.6018 17.348 84.6018 18.124V21.016C84.6018 21.232 84.7018 21.344 84.9018 21.352V22C84.7258 22.024 84.6018 22.032 84.5298 22.024C84.3298 22.016 84.1778 21.952 84.0738 21.832C83.9698 21.712 83.9138 21.584 83.9058 21.448L83.8938 20.992C83.6138 21.352 83.2498 21.632 82.8018 21.832C82.3538 22.024 81.8978 22.12 81.4338 22.12C81.0258 22.12 80.6618 22.036 80.3418 21.868C80.0218 21.692 79.7698 21.46 79.5858 21.172C79.4098 20.876 79.3218 20.552 79.3218 20.2ZM83.5098 20.68C83.6938 20.464 83.7858 20.264 83.7858 20.08V19.168C83.2338 18.952 82.6578 18.844 82.0578 18.844C81.4738 18.844 81.0018 18.96 80.6418 19.192C80.2818 19.424 80.1018 19.74 80.1018 20.14C80.1018 20.484 80.2338 20.796 80.4978 21.076C80.7698 21.356 81.1458 21.496 81.6258 21.496C82.0178 21.496 82.3818 21.42 82.7178 21.268C83.0618 21.116 83.3258 20.92 83.5098 20.68ZM89.0768 22.12C88.4688 22.12 87.9288 21.972 87.4568 21.676C86.9848 21.372 86.6128 20.976 86.3408 20.488C86.0688 19.992 85.9328 19.448 85.9328 18.856C85.9328 18.264 86.0648 17.728 86.3288 17.248C86.5928 16.76 86.9608 16.372 87.4328 16.084C87.9048 15.788 88.4488 15.64 89.0648 15.64C89.6488 15.64 90.1608 15.776 90.6008 16.048C91.0488 16.312 91.3848 16.672 91.6088 17.128L90.8168 17.38C90.6408 17.06 90.3928 16.812 90.0728 16.636C89.7608 16.452 89.4128 16.36 89.0288 16.36C88.6048 16.36 88.2208 16.468 87.8768 16.684C87.5408 16.9 87.2688 17.2 87.0608 17.584C86.8608 17.96 86.7608 18.384 86.7608 18.856C86.7608 19.328 86.8648 19.756 87.0728 20.14C87.2808 20.524 87.5568 20.832 87.9008 21.064C88.2448 21.288 88.6248 21.4 89.0408 21.4C89.3128 21.4 89.5768 21.352 89.8328 21.256C90.0888 21.16 90.3088 21.032 90.4928 20.872C90.6768 20.704 90.8008 20.524 90.8648 20.332L91.6688 20.572C91.5568 20.868 91.3728 21.136 91.1168 21.376C90.8608 21.608 90.5568 21.792 90.2048 21.928C89.8528 22.056 89.4768 22.12 89.0768 22.12ZM95.5922 22.12C94.9922 22.12 94.4562 21.972 93.9842 21.676C93.5122 21.38 93.1402 20.984 92.8682 20.488C92.5962 19.992 92.4602 19.448 92.4602 18.856C92.4602 18.272 92.5922 17.736 92.8562 17.248C93.1282 16.76 93.5002 16.372 93.9722 16.084C94.4442 15.788 94.9802 15.64 95.5802 15.64C96.1962 15.64 96.7362 15.788 97.2002 16.084C97.6642 16.38 98.0242 16.772 98.2802 17.26C98.5442 17.74 98.6762 18.268 98.6762 18.844C98.6762 18.972 98.6722 19.08 98.6642 19.168H93.3122C93.3522 19.616 93.4802 20.016 93.6962 20.368C93.9122 20.712 94.1882 20.988 94.5242 21.196C94.8602 21.396 95.2282 21.496 95.6282 21.496C96.0362 21.496 96.4202 21.392 96.7802 21.184C97.1402 20.976 97.3962 20.704 97.5482 20.368L98.2562 20.56C98.1282 20.864 97.9282 21.136 97.6562 21.376C97.3922 21.608 97.0842 21.792 96.7322 21.928C96.3802 22.056 96.0002 22.12 95.5922 22.12ZM93.2882 18.58H97.9082C97.8762 18.132 97.7522 17.736 97.5362 17.392C97.3202 17.04 97.0442 16.768 96.7082 16.576C96.3722 16.376 96.0002 16.276 95.5922 16.276C95.1842 16.276 94.8122 16.376 94.4762 16.576C94.1402 16.768 93.8642 17.04 93.6482 17.392C93.4402 17.736 93.3202 18.132 93.2882 18.58Z" fill="black"/>
</svg>
